name C:\Users\r0593348\3dpredictsim\Results\batch_windlass\Pog_s1_tmt_bCst_d05_k500_WL40_ig24.mot
datacolumns 128
datarows 4
range 0.53653918 0.56873153
endheader
time	pelvis_tilt	pelvis_list	pelvis_rotation	pelvis_tx	pelvis_ty	pelvis_tz	hip_flexion_l	hip_adduction_l	hip_rotation_l	hip_flexion_r	hip_adduction_r	hip_rotation_r	knee_angle_l	knee_angle_r	ankle_angle_l	ankle_angle_r	subtalar_angle_l	subtalar_angle_r	tmt_angle_l	tmt_angle_r	mtp_angle_l	mtp_angle_r	lumbar_extension	lumbar_bending	lumbar_rotation	arm_flex_l	arm_add_l	arm_rot_l	arm_flex_r	arm_add_r	arm_rot_r	elbow_flex_l	elbow_flex_r	pro_sup_l	pro_sup_r	glut_med1_l/activation	glut_med2_l/activation	glut_med3_l/activation	glut_min1_l/activation	glut_min2_l/activation	glut_min3_l/activation	semimem_l/activation	semiten_l/activation	bifemlh_l/activation	bifemsh_l/activation	sar_l/activation	add_long_l/activation	add_brev_l/activation	add_mag1_l/activation	add_mag2_l/activation	add_mag3_l/activation	tfl_l/activation	pect_l/activation	grac_l/activation	glut_max1_l/activation	glut_max2_l/activation	glut_max3_l/activation	iliacus_l/activation	psoas_l/activation	quad_fem_l/activation	gem_l/activation	peri_l/activation	rect_fem_l/activation	vas_med_l/activation	vas_int_l/activation	vas_lat_l/activation	med_gas_l/activation	lat_gas_l/activation	soleus_l/activation	tib_post_l/activation	flex_dig_l/activation	flex_hal_l/activation	tib_ant_l/activation	per_brev_l/activation	per_long_l/activation	per_tert_l/activation	ext_dig_l/activation	ext_hal_l/activation	ercspn_l/activation	intobl_l/activation	extobl_l/activation	glut_med1_r/activation	glut_med2_r/activation	glut_med3_r/activation	glut_min1_r/activation	glut_min2_r/activation	glut_min3_r/activation	semimem_r/activation	semiten_r/activation	bifemlh_r/activation	bifemsh_r/activation	sar_r/activation	add_long_r/activation	add_brev_r/activation	add_mag1_r/activation	add_mag2_r/activation	add_mag3_r/activation	tfl_r/activation	pect_r/activation	grac_r/activation	glut_max1_r/activation	glut_max2_r/activation	glut_max3_r/activation	iliacus_r/activation	psoas_r/activation	quad_fem_r/activation	gem_r/activation	peri_r/activation	rect_fem_r/activation	vas_med_r/activation	vas_int_r/activation	vas_lat_r/activation	med_gas_r/activation	lat_gas_r/activation	soleus_r/activation	tib_post_r/activation	flex_dig_r/activation	flex_hal_r/activation	tib_ant_r/activation	per_brev_r/activation	per_long_r/activation	per_tert_r/activation	ext_dig_r/activation	ext_hal_r/activation	ercspn_r/activation	intobl_r/activation	extobl_r/activation	
          0.53653918	         -2.92451576	          1.33990130	         -5.52710768	          0.67067398	          0.86238195	          0.00108332	         31.11116741	          1.71437013	         -2.56772972	        -16.89426910	         -1.27402317	          7.74116415	        -18.35756597	        -10.47692177	          2.26787037	          0.15752691	          4.13538061	         14.18488763	          0.26918460	        -11.28864298	         -0.38793454	         29.65627512	         -0.76032953	          0.31666942	          1.79306760	        -10.66097392	        -13.59096226	          6.10182935	          4.45572208	        -13.46806022	         14.63650354	         19.12676258	         36.06738351	         86.51662706	         86.51662706	          0.05654623	          0.05000066	          0.05894240	          0.05000018	          0.05000026	          0.05000199	          0.05894257	          0.05894297	          0.06849694	          0.05000804	          0.05000079	          0.08183327	          0.10768057	          0.12438931	          0.13133230	          0.11642620	          0.05000266	          0.05000391	          0.05894371	          0.05894284	          0.10148231	          0.07621444	          0.05856689	          0.06294854	          0.21367475	          0.05000028	          0.05000054	          0.05000029	          0.09610414	          0.11080496	          0.08203007	          0.05962284	          0.05784136	          0.05335063	          0.05824471	          0.05894369	          0.05894626	          0.46494625	          0.29759577	          0.17376625	          0.05000087	          0.51131850	          0.13932823	          0.05000021	          0.10243893	          0.12634924	          0.31120417	          0.09038496	          0.05000007	          0.29414119	          0.18937785	          0.08775525	          0.05000125	          0.05000017	          0.05000012	          0.06412694	          0.06949387	          0.09142587	          0.05000036	          0.05000026	          0.05000078	          0.05000067	          0.23624087	          0.05000367	          0.05000032	          0.05000136	          0.05000088	          0.05000054	          0.24840328	          0.46733063	          0.05000008	          0.05000035	          0.05000010	          0.19429044	          0.07919356	          0.07528657	          0.10631542	          0.24857935	          0.31906260	          0.19906072	          0.17956061	          0.17159424	          0.22386351	          0.05000006	          0.14666905	          0.21400219	          0.05000025	          0.05000048	          0.05000028	          0.05000001	          0.05000003	          0.05000003	
          0.54726997	         -2.91416901	          1.41231912	         -5.75028798	          0.68716394	          0.86148334	          0.00086928	         30.44153680	          2.09230364	         -2.35409753	        -16.67382444	         -1.51585713	          7.47927984	        -17.83954150	        -12.41790746	          2.00240000	         -0.89969585	          3.64404557	         14.97054576	          0.16100741	        -11.98407089	         -0.12922298	         30.38884715	         -0.54947123	          0.07509658	          1.86292896	        -11.68549725	        -13.58360616	          5.92833149	          4.19021624	        -13.49725607	         14.95373577	         19.05217119	         36.99904396	         86.51662706	         86.51662706	          0.05894225	          0.05894229	          0.05000016	          0.05894243	          0.05894239	          0.05467653	          0.05000030	          0.05000061	          0.05894106	          0.05000012	          0.05000085	          0.09656020	          0.22595177	          0.10551812	          0.16365935	          0.13358365	          0.05000011	          0.08190735	          0.05000146	          0.05000056	          0.08608620	          0.16598124	          0.05894233	          0.05375934	          0.31649060	          0.15818987	          0.11001862	          0.06947678	          0.21724429	          0.21550466	          0.18049491	          0.05741134	          0.05256268	          0.05699831	          0.05000002	          0.05000126	          0.05000348	          0.61250775	          0.25244722	          0.14740372	          0.44618893	          0.59149382	          0.28666861	          0.05000005	          0.08689761	          0.10718041	          0.26399048	          0.07667240	          0.05000003	          0.24951620	          0.16064680	          0.07444167	          0.05000096	          0.05000010	          0.05000009	          0.05439809	          0.05895085	          0.14558207	          0.27645066	          0.06337693	          0.05000169	          0.05000037	          0.20040015	          0.09656156	          0.05000067	          0.05000066	          0.05000037	          0.05000028	          0.21071730	          0.39643098	          0.05000006	          0.05000025	          0.05000010	          0.16481408	          0.06717942	          0.14921575	          0.09821455	          0.21086662	          0.27065665	          0.16886061	          0.15231895	          0.14556125	          0.18990055	          0.11716566	          0.12441777	          0.18153552	          0.05000030	          0.14623412	          0.05000046	          0.05000009	          0.05527797	          0.07455418	
          0.55800075	         -2.89905586	          1.49169858	         -5.94781240	          0.70383991	          0.86026279	          0.00066552	         29.65301935	          2.45186490	         -2.07316252	        -16.37001979	         -1.74449503	          7.20430260	        -17.90232226	        -14.56913785	          1.58315897	         -1.90807759	          3.11119344	         15.67734792	          0.00055292	        -12.33638186	          0.18336876	         30.32527723	         -0.32949131	         -0.18199000	          1.92267683	        -12.68394346	        -13.58903474	          5.84013569	          3.86527906	        -13.53938346	         15.21536937	         18.92955166	         37.92457880	         86.51662706	         86.51662706	          0.05000003	          0.05000010	          0.14561600	          0.05000012	          0.05000010	          0.05000010	          0.05000008	          0.05000014	          0.05000008	          0.05000003	          0.05000019	          0.08191084	          0.19167215	          0.31410339	          0.26094549	          0.15990459	          0.05000043	          0.06948294	          0.08190136	          0.11994835	          0.12955823	          0.14080001	          0.05000007	          0.05000014	          0.30321215	          0.13419045	          0.09332741	          0.05894247	          0.27899289	          0.27507425	          0.23188645	          0.05894234	          0.05000025	          0.05000009	          0.05000003	          0.05000072	          0.05000025	          0.54177218	          0.22025292	          0.13091092	          0.44727430	          0.52797257	          0.24317731	          0.05000000	          0.07371411	          0.09091975	          0.22393970	          0.06504024	          0.05000048	          0.21166138	          0.13627463	          0.06314797	          0.05001063	          0.05886816	          0.05894439	          0.05000004	          0.05000731	          0.19631253	          0.36262148	          0.26802310	          0.12657010	          0.13418850	          0.16999695	          0.08191216	          0.05894259	          0.05001184	          0.05894292	          0.06948603	          0.17874875	          0.35012227	          0.06207194	          0.05894394	          0.05894178	          0.13980965	          0.09866705	          0.12657855	          0.08331494	          0.17887540	          0.22959451	          0.14324225	          0.12921021	          0.12347781	          0.16109023	          0.21340480	          0.10554277	          0.17236792	          0.05000251	          0.22626615	          0.12948602	          0.06688843	          0.06948389	          0.06948385	
          0.56873153	         -2.88078921	          1.58346845	         -6.11821962	          0.72055698	          0.85875270	          0.00048155	         28.68140255	          2.77303406	         -1.74471980	        -15.95375524	         -1.95988334	          6.93064015	        -18.18908606	        -16.97612499	          1.53963092	         -2.80686858	          2.53364423	         16.28113480	         -0.45178063	        -12.14088041	          0.38607796	         29.09090579	         -0.11154656	         -0.45753682	          1.97028702	        -13.62457475	        -13.61200422	          5.86347511	          3.50559213	        -13.58986888	         15.43135232	         18.73804756	         38.83207361	         86.51662706	         86.51662706	          0.28652846	          0.35514688	          0.49779067	          0.38413717	          0.26217279	          0.39932862	          0.07587156	          0.09511877	          0.08368250	          0.06948393	          0.05000109	          0.06948393	          0.16259301	          0.26644987	          0.22135675	          0.13661542	          0.05000019	          0.05894265	          0.06949369	          0.26240599	          0.19754336	          0.11944097	          0.05894149	          0.05000031	          0.25721097	          0.11383225	          0.27216783	          0.05000015	          0.28524592	          0.30082723	          0.24672935	          0.05000006	          0.05000011	          0.05000491	          0.05000020	          0.05000054	          0.05000089	          0.67246355	          0.18683769	          0.11105003	          0.47997524	          0.57766998	          0.37706361	          0.05861592	          0.08191094	          0.07712604	          0.26733566	          0.06012063	          0.05000017	          0.22280143	          0.12407508	          0.05988936	          0.05000445	          0.05000019	          0.05000182	          0.05000044	          0.06948378	          0.16652939	          0.30760710	          0.22736053	          0.10736786	          0.11383040	          0.25710367	          0.06948516	          0.05000150	          0.05000177	          0.05000146	          0.05894421	          0.16155879	          0.35054446	          0.05265487	          0.05000162	          0.05000024	          0.11859875	          0.08369799	          0.10737495	          0.07067499	          0.15173767	          0.19476204	          0.12151053	          0.10961006	          0.10474478	          0.13665095	          0.21334160	          0.13468716	          0.15617950	          0.08054221	          0.24441068	          0.10984140	          0.10011389	          0.05894228	          0.05894226	
